<svg width="200" height="200" viewBox="0 0 200 200" fill="none" xmlns="http://www.w3.org/2000/svg">
<g clip-path="url(#clip0_177_556)">
<rect width="200" height="200" fill="black"/>
<path d="M17.0312 94.5C16.4688 94.5 16.0312 94.3438 15.7188 94.0312C15.4062 93.7188 15.25 93.375 15.25 93C15.25 92.625 15.4062 92.2812 15.7188 91.9688C16.0312 91.6562 16.4688 91.5 17.0312 91.5H86.9688C87.5312 91.5 87.9688 91.6562 88.2812 91.9688C88.5938 92.2812 88.75 92.625 88.75 93C88.75 93.375 88.5938 93.7188 88.2812 94.0312C87.9688 94.3438 87.5312 94.5 86.9688 94.5H17.0312ZM17.0312 82.5C16.4688 82.5 16.0312 82.3438 15.7188 82.0312C15.4062 81.7188 15.25 81.375 15.25 81C15.25 80.625 15.4062 80.2812 15.7188 79.9688C16.0312 79.6562 16.4688 79.5 17.0312 79.5H38.9688C39.5312 79.5 39.9688 79.6562 40.2812 79.9688C40.5938 80.2812 40.75 80.625 40.75 81C40.75 81.375 40.5938 81.7188 40.2812 82.0312C39.9688 82.3438 39.5312 82.5 38.9688 82.5H17.0312ZM17.0312 70.5C16.4688 70.5 16.0312 70.3438 15.7188 70.0312C15.4062 69.7188 15.25 69.375 15.25 69C15.25 68.625 15.4062 68.2812 15.7188 67.9688C16.0312 67.6562 16.4688 67.5 17.0312 67.5H38.9688C39.5312 67.5 39.9688 67.6562 40.2812 67.9688C40.5938 68.2812 40.75 68.625 40.75 69C40.75 69.375 40.5938 69.7188 40.2812 70.0312C39.9688 70.3438 39.5312 70.5 38.9688 70.5H17.0312ZM17.0312 58.5C16.4688 58.5 16.0312 58.3438 15.7188 58.0312C15.4062 57.7188 15.25 57.375 15.25 57C15.25 56.625 15.4062 56.2812 15.7188 55.9688C16.0312 55.6562 16.4688 55.5 17.0312 55.5H38.9688C39.5312 55.5 39.9688 55.6562 40.2812 55.9688C40.5938 56.2812 40.75 56.625 40.75 57C40.75 57.375 40.5938 57.7188 40.2812 58.0312C39.9688 58.3438 39.5312 58.5 38.9688 58.5H17.0312ZM17.0312 46.5C16.4688 46.5 16.0312 46.3438 15.7188 46.0312C15.4062 45.7188 15.25 45.375 15.25 45C15.25 44.625 15.4062 44.2812 15.7188 43.9688C16.0312 43.6562 16.4688 43.5 17.0312 43.5H38.9688C39.5312 43.5 39.9688 43.6562 40.2812 43.9688C40.5938 44.2812 40.75 44.625 40.75 45C40.75 45.375 40.5938 45.7188 40.2812 46.0312C39.9688 46.3438 39.5312 46.5 38.9688 46.5H17.0312ZM17.0312 34.5C16.4688 34.5 16.0312 34.3438 15.7188 34.0312C15.4062 33.7188 15.25 33.375 15.25 33C15.25 32.625 15.4062 32.2812 15.7188 31.9688C16.0312 31.6562 16.4688 31.5 17.0312 31.5H38.9688C39.5312 31.5 39.9688 31.6562 40.2812 31.9688C40.5938 32.2812 40.75 32.625 40.75 33C40.75 33.375 40.5938 33.7188 40.2812 34.0312C39.9688 34.3438 39.5312 34.5 38.9688 34.5H17.0312ZM17.0312 22.5C16.4688 22.5 16.0312 22.3438 15.7188 22.0312C15.4062 21.7187 15.25 21.375 15.25 21C15.25 20.625 15.4062 20.2813 15.7188 19.9688C16.0312 19.6562 16.4688 19.5 17.0312 19.5H38.9688C39.5312 19.5 39.9688 19.6562 40.2812 19.9688C40.5938 20.2813 40.75 20.625 40.75 21C40.75 21.375 40.5938 21.7187 40.2812 22.0312C39.9688 22.3438 39.5312 22.5 38.9688 22.5H17.0312ZM125.031 94.5C124.469 94.5 124.031 94.3438 123.719 94.0312C123.406 93.7188 123.25 93.375 123.25 93C123.25 92.625 123.406 92.2812 123.719 91.9688C124.031 91.6562 124.469 91.5 125.031 91.5H170.969C171.531 91.5 171.969 91.6562 172.281 91.9688C172.594 92.2812 172.75 92.625 172.75 93C172.75 93.375 172.594 93.7188 172.281 94.0312C171.969 94.3438 171.531 94.5 170.969 94.5H125.031ZM113.031 82.5C112.469 82.5 112.031 82.3438 111.719 82.0312C111.406 81.7188 111.25 81.375 111.25 81C111.25 80.625 111.406 80.2812 111.719 79.9688C112.031 79.6562 112.469 79.5 113.031 79.5H134.969C135.531 79.5 135.969 79.6562 136.281 79.9688C136.594 80.2812 136.75 80.625 136.75 81C136.75 81.375 136.594 81.7188 136.281 82.0312C135.969 82.3438 135.531 82.5 134.969 82.5H113.031ZM161.031 82.5C160.469 82.5 160.031 82.3438 159.719 82.0312C159.406 81.7188 159.25 81.375 159.25 81C159.25 80.625 159.406 80.2812 159.719 79.9688C160.031 79.6562 160.469 79.5 161.031 79.5H182.969C183.531 79.5 183.969 79.6562 184.281 79.9688C184.594 80.2812 184.75 80.625 184.75 81C184.75 81.375 184.594 81.7188 184.281 82.0312C183.969 82.3438 183.531 82.5 182.969 82.5H161.031ZM113.031 70.5C112.469 70.5 112.031 70.3438 111.719 70.0312C111.406 69.7188 111.25 69.375 111.25 69C111.25 68.625 111.406 68.2812 111.719 67.9688C112.031 67.6562 112.469 67.5 113.031 67.5H134.969C135.531 67.5 135.969 67.6562 136.281 67.9688C136.594 68.2812 136.75 68.625 136.75 69C136.75 69.375 136.594 69.7188 136.281 70.0312C135.969 70.3438 135.531 70.5 134.969 70.5H113.031ZM113.031 58.5C112.469 58.5 112.031 58.3438 111.719 58.0312C111.406 57.7188 111.25 57.375 111.25 57C111.25 56.625 111.406 56.2812 111.719 55.9688C112.031 55.6562 112.469 55.5 113.031 55.5H134.969C135.531 55.5 135.969 55.6562 136.281 55.9688C136.594 56.2812 136.75 56.625 136.75 57C136.75 57.375 136.594 57.7188 136.281 58.0312C135.969 58.3438 135.531 58.5 134.969 58.5H113.031ZM113.031 46.5C112.469 46.5 112.031 46.3438 111.719 46.0312C111.406 45.7188 111.25 45.375 111.25 45C111.25 44.625 111.406 44.2812 111.719 43.9688C112.031 43.6562 112.469 43.5 113.031 43.5H134.969C135.531 43.5 135.969 43.6562 136.281 43.9688C136.594 44.2812 136.75 44.625 136.75 45C136.75 45.375 136.594 45.7188 136.281 46.0312C135.969 46.3438 135.531 46.5 134.969 46.5H113.031ZM113.031 34.5C112.469 34.5 112.031 34.3438 111.719 34.0312C111.406 33.7188 111.25 33.375 111.25 33C111.25 32.625 111.406 32.2812 111.719 31.9688C112.031 31.6562 112.469 31.5 113.031 31.5H134.969C135.531 31.5 135.969 31.6562 136.281 31.9688C136.594 32.2812 136.75 32.625 136.75 33C136.75 33.375 136.594 33.7188 136.281 34.0312C135.969 34.3438 135.531 34.5 134.969 34.5H113.031ZM161.031 34.5C160.469 34.5 160.031 34.3438 159.719 34.0312C159.406 33.7188 159.25 33.375 159.25 33C159.25 32.625 159.406 32.2812 159.719 31.9688C160.031 31.6562 160.469 31.5 161.031 31.5H182.969C183.531 31.5 183.969 31.6562 184.281 31.9688C184.594 32.2812 184.75 32.625 184.75 33C184.75 33.375 184.594 33.7188 184.281 34.0312C183.969 34.3438 183.531 34.5 182.969 34.5H161.031ZM125.031 22.5C124.469 22.5 124.031 22.3438 123.719 22.0312C123.406 21.7187 123.25 21.375 123.25 21C123.25 20.625 123.406 20.2813 123.719 19.9688C124.031 19.6562 124.469 19.5 125.031 19.5H170.969C171.531 19.5 171.969 19.6562 172.281 19.9688C172.594 20.2813 172.75 20.625 172.75 21C172.75 21.375 172.594 21.7187 172.281 22.0312C171.969 22.3438 171.531 22.5 170.969 22.5H125.031Z" fill="#FF0000"/>
<path d="M37.0312 176.5C36.4688 176.5 36.0312 176.344 35.7188 176.031C35.4062 175.719 35.25 175.375 35.25 175C35.25 174.625 35.4062 174.281 35.7188 173.969C36.0312 173.656 36.4688 173.5 37.0312 173.5H58.9688C59.5312 173.5 59.9688 173.656 60.2812 173.969C60.5938 174.281 60.75 174.625 60.75 175C60.75 175.375 60.5938 175.719 60.2812 176.031C59.9688 176.344 59.5312 176.5 58.9688 176.5H37.0312ZM37.0312 164.5C36.4688 164.5 36.0312 164.344 35.7188 164.031C35.4062 163.719 35.25 163.375 35.25 163C35.25 162.625 35.4062 162.281 35.7188 161.969C36.0312 161.656 36.4688 161.5 37.0312 161.5H58.9688C59.5312 161.5 59.9688 161.656 60.2812 161.969C60.5938 162.281 60.75 162.625 60.75 163C60.75 163.375 60.5938 163.719 60.2812 164.031C59.9688 164.344 59.5312 164.5 58.9688 164.5H37.0312ZM13.0312 152.5C12.4688 152.5 12.0312 152.344 11.7188 152.031C11.4062 151.719 11.25 151.375 11.25 151C11.25 150.625 11.4062 150.281 11.7188 149.969C12.0312 149.656 12.4688 149.5 13.0312 149.5H82.9688C83.5312 149.5 83.9688 149.656 84.2812 149.969C84.5938 150.281 84.75 150.625 84.75 151C84.75 151.375 84.5938 151.719 84.2812 152.031C83.9688 152.344 83.5312 152.5 82.9688 152.5H13.0312ZM37.0312 140.5C36.4688 140.5 36.0312 140.344 35.7188 140.031C35.4062 139.719 35.25 139.375 35.25 139C35.25 138.625 35.4062 138.281 35.7188 137.969C36.0312 137.656 36.4688 137.5 37.0312 137.5H58.9688C59.5312 137.5 59.9688 137.656 60.2812 137.969C60.5938 138.281 60.75 138.625 60.75 139C60.75 139.375 60.5938 139.719 60.2812 140.031C59.9688 140.344 59.5312 140.5 58.9688 140.5H37.0312ZM37.0312 128.5C36.4688 128.5 36.0312 128.344 35.7188 128.031C35.4062 127.719 35.25 127.375 35.25 127C35.25 126.625 35.4062 126.281 35.7188 125.969C36.0312 125.656 36.4688 125.5 37.0312 125.5H58.9688C59.5312 125.5 59.9688 125.656 60.2812 125.969C60.5938 126.281 60.75 126.625 60.75 127C60.75 127.375 60.5938 127.719 60.2812 128.031C59.9688 128.344 59.5312 128.5 58.9688 128.5H37.0312ZM109.031 164.5C108.469 164.5 108.031 164.344 107.719 164.031C107.406 163.719 107.25 163.375 107.25 163C107.25 162.625 107.406 162.281 107.719 161.969C108.031 161.656 108.469 161.5 109.031 161.5H178.969C179.531 161.5 179.969 161.656 180.281 161.969C180.594 162.281 180.75 162.625 180.75 163C180.75 163.375 180.594 163.719 180.281 164.031C179.969 164.344 179.531 164.5 178.969 164.5H109.031ZM109.031 140.5C108.469 140.5 108.031 140.344 107.719 140.031C107.406 139.719 107.25 139.375 107.25 139C107.25 138.625 107.406 138.281 107.719 137.969C108.031 137.656 108.469 137.5 109.031 137.5H178.969C179.531 137.5 179.969 137.656 180.281 137.969C180.594 138.281 180.75 138.625 180.75 139C180.75 139.375 180.594 139.719 180.281 140.031C179.969 140.344 179.531 140.5 178.969 140.5H109.031Z" fill="#FF0000"/>
</g>
<defs>
<clipPath id="clip0_177_556">
<rect width="200" height="200" fill="white"/>
</clipPath>
</defs>
</svg>
