<svg width="200" height="200" viewBox="0 0 200 200" fill="none" xmlns="http://www.w3.org/2000/svg">
<g clip-path="url(#clip0_177_556)">
<rect width="200" height="200" fill="black"/>
<path d="M17.9688 95.8125C16.9062 95.8125 16.0625 95.5312 15.4375 94.9688C14.875 94.4062 14.5938 93.75 14.5938 93C14.5938 92.25 14.875 91.5938 15.4375 91.0312C16.0625 90.4688 16.9062 90.1875 17.9688 90.1875H86.0312C87.0938 90.1875 87.9062 90.4688 88.4688 91.0312C89.0938 91.5938 89.4062 92.25 89.4062 93C89.4062 93.75 89.0938 94.4062 88.4688 94.9688C87.9062 95.5312 87.0938 95.8125 86.0312 95.8125H17.9688ZM17.9688 83.8125C16.9062 83.8125 16.0625 83.5312 15.4375 82.9688C14.875 82.4062 14.5938 81.75 14.5938 81C14.5938 80.25 14.875 79.5938 15.4375 79.0312C16.0625 78.4688 16.9062 78.1875 17.9688 78.1875H38.0312C39.0938 78.1875 39.9062 78.4688 40.4688 79.0312C41.0938 79.5938 41.4062 80.25 41.4062 81C41.4062 81.75 41.0938 82.4062 40.4688 82.9688C39.9062 83.5312 39.0938 83.8125 38.0312 83.8125H17.9688ZM17.9688 71.8125C16.9062 71.8125 16.0625 71.5312 15.4375 70.9688C14.875 70.4062 14.5938 69.75 14.5938 69C14.5938 68.25 14.875 67.5938 15.4375 67.0312C16.0625 66.4688 16.9062 66.1875 17.9688 66.1875H38.0312C39.0938 66.1875 39.9062 66.4688 40.4688 67.0312C41.0938 67.5938 41.4062 68.25 41.4062 69C41.4062 69.75 41.0938 70.4062 40.4688 70.9688C39.9062 71.5312 39.0938 71.8125 38.0312 71.8125H17.9688ZM17.9688 59.8125C16.9062 59.8125 16.0625 59.5312 15.4375 58.9688C14.875 58.4062 14.5938 57.75 14.5938 57C14.5938 56.25 14.875 55.5938 15.4375 55.0312C16.0625 54.4688 16.9062 54.1875 17.9688 54.1875H38.0312C39.0938 54.1875 39.9062 54.4688 40.4688 55.0312C41.0938 55.5938 41.4062 56.25 41.4062 57C41.4062 57.75 41.0938 58.4062 40.4688 58.9688C39.9062 59.5312 39.0938 59.8125 38.0312 59.8125H17.9688ZM17.9688 47.8125C16.9062 47.8125 16.0625 47.5312 15.4375 46.9688C14.875 46.4062 14.5938 45.75 14.5938 45C14.5938 44.25 14.875 43.5938 15.4375 43.0312C16.0625 42.4688 16.9062 42.1875 17.9688 42.1875H38.0312C39.0938 42.1875 39.9062 42.4688 40.4688 43.0312C41.0938 43.5938 41.4062 44.25 41.4062 45C41.4062 45.75 41.0938 46.4062 40.4688 46.9688C39.9062 47.5312 39.0938 47.8125 38.0312 47.8125H17.9688ZM17.9688 35.8125C16.9062 35.8125 16.0625 35.5312 15.4375 34.9688C14.875 34.4062 14.5938 33.75 14.5938 33C14.5938 32.25 14.875 31.5938 15.4375 31.0312C16.0625 30.4688 16.9062 30.1875 17.9688 30.1875H38.0312C39.0938 30.1875 39.9062 30.4688 40.4688 31.0312C41.0938 31.5938 41.4062 32.25 41.4062 33C41.4062 33.75 41.0938 34.4062 40.4688 34.9688C39.9062 35.5312 39.0938 35.8125 38.0312 35.8125H17.9688ZM17.9688 23.8125C16.9062 23.8125 16.0625 23.5312 15.4375 22.9688C14.875 22.4062 14.5938 21.75 14.5938 21C14.5938 20.25 14.875 19.5938 15.4375 19.0312C16.0625 18.4688 16.9062 18.1875 17.9688 18.1875H38.0312C39.0938 18.1875 39.9062 18.4688 40.4688 19.0312C41.0938 19.5938 41.4062 20.25 41.4062 21C41.4062 21.75 41.0938 22.4062 40.4688 22.9688C39.9062 23.5312 39.0938 23.8125 38.0312 23.8125H17.9688ZM125.969 95.8125C124.906 95.8125 124.062 95.5312 123.438 94.9688C122.875 94.4062 122.594 93.75 122.594 93C122.594 92.25 122.875 91.5938 123.438 91.0312C124.062 90.4688 124.906 90.1875 125.969 90.1875H170.031C171.094 90.1875 171.906 90.4688 172.469 91.0312C173.094 91.5938 173.406 92.25 173.406 93C173.406 93.75 173.094 94.4062 172.469 94.9688C171.906 95.5312 171.094 95.8125 170.031 95.8125H125.969ZM113.969 83.8125C112.906 83.8125 112.062 83.5312 111.438 82.9688C110.875 82.4062 110.594 81.75 110.594 81C110.594 80.25 110.875 79.5938 111.438 79.0312C112.062 78.4688 112.906 78.1875 113.969 78.1875H134.031C135.094 78.1875 135.906 78.4688 136.469 79.0312C137.094 79.5938 137.406 80.25 137.406 81C137.406 81.75 137.094 82.4062 136.469 82.9688C135.906 83.5312 135.094 83.8125 134.031 83.8125H113.969ZM161.969 83.8125C160.906 83.8125 160.062 83.5312 159.438 82.9688C158.875 82.4062 158.594 81.75 158.594 81C158.594 80.25 158.875 79.5938 159.438 79.0312C160.062 78.4688 160.906 78.1875 161.969 78.1875H182.031C183.094 78.1875 183.906 78.4688 184.469 79.0312C185.094 79.5938 185.406 80.25 185.406 81C185.406 81.75 185.094 82.4062 184.469 82.9688C183.906 83.5312 183.094 83.8125 182.031 83.8125H161.969ZM113.969 71.8125C112.906 71.8125 112.062 71.5312 111.438 70.9688C110.875 70.4062 110.594 69.75 110.594 69C110.594 68.25 110.875 67.5938 111.438 67.0312C112.062 66.4688 112.906 66.1875 113.969 66.1875H134.031C135.094 66.1875 135.906 66.4688 136.469 67.0312C137.094 67.5938 137.406 68.25 137.406 69C137.406 69.75 137.094 70.4062 136.469 70.9688C135.906 71.5312 135.094 71.8125 134.031 71.8125H113.969ZM113.969 59.8125C112.906 59.8125 112.062 59.5312 111.438 58.9688C110.875 58.4062 110.594 57.75 110.594 57C110.594 56.25 110.875 55.5938 111.438 55.0312C112.062 54.4688 112.906 54.1875 113.969 54.1875H134.031C135.094 54.1875 135.906 54.4688 136.469 55.0312C137.094 55.5938 137.406 56.25 137.406 57C137.406 57.75 137.094 58.4062 136.469 58.9688C135.906 59.5312 135.094 59.8125 134.031 59.8125H113.969ZM113.969 47.8125C112.906 47.8125 112.062 47.5312 111.438 46.9688C110.875 46.4062 110.594 45.75 110.594 45C110.594 44.25 110.875 43.5938 111.438 43.0312C112.062 42.4688 112.906 42.1875 113.969 42.1875H134.031C135.094 42.1875 135.906 42.4688 136.469 43.0312C137.094 43.5938 137.406 44.25 137.406 45C137.406 45.75 137.094 46.4062 136.469 46.9688C135.906 47.5312 135.094 47.8125 134.031 47.8125H113.969ZM113.969 35.8125C112.906 35.8125 112.062 35.5312 111.438 34.9688C110.875 34.4062 110.594 33.75 110.594 33C110.594 32.25 110.875 31.5938 111.438 31.0312C112.062 30.4688 112.906 30.1875 113.969 30.1875H134.031C135.094 30.1875 135.906 30.4688 136.469 31.0312C137.094 31.5938 137.406 32.25 137.406 33C137.406 33.75 137.094 34.4062 136.469 34.9688C135.906 35.5312 135.094 35.8125 134.031 35.8125H113.969ZM161.969 35.8125C160.906 35.8125 160.062 35.5312 159.438 34.9688C158.875 34.4062 158.594 33.75 158.594 33C158.594 32.25 158.875 31.5938 159.438 31.0312C160.062 30.4688 160.906 30.1875 161.969 30.1875H182.031C183.094 30.1875 183.906 30.4688 184.469 31.0312C185.094 31.5938 185.406 32.25 185.406 33C185.406 33.75 185.094 34.4062 184.469 34.9688C183.906 35.5312 183.094 35.8125 182.031 35.8125H161.969ZM125.969 23.8125C124.906 23.8125 124.062 23.5312 123.438 22.9688C122.875 22.4062 122.594 21.75 122.594 21C122.594 20.25 122.875 19.5938 123.438 19.0312C124.062 18.4688 124.906 18.1875 125.969 18.1875H170.031C171.094 18.1875 171.906 18.4688 172.469 19.0312C173.094 19.5938 173.406 20.25 173.406 21C173.406 21.75 173.094 22.4062 172.469 22.9688C171.906 23.5312 171.094 23.8125 170.031 23.8125H125.969Z" fill="#FF0000"/>
<path d="M37.9688 177.812C36.9062 177.812 36.0625 177.531 35.4375 176.969C34.875 176.406 34.5938 175.75 34.5938 175C34.5938 174.25 34.875 173.594 35.4375 173.031C36.0625 172.469 36.9062 172.188 37.9688 172.188H58.0312C59.0938 172.188 59.9062 172.469 60.4688 173.031C61.0938 173.594 61.4062 174.25 61.4062 175C61.4062 175.75 61.0938 176.406 60.4688 176.969C59.9062 177.531 59.0938 177.812 58.0312 177.812H37.9688ZM37.9688 165.812C36.9062 165.812 36.0625 165.531 35.4375 164.969C34.875 164.406 34.5938 163.75 34.5938 163C34.5938 162.25 34.875 161.594 35.4375 161.031C36.0625 160.469 36.9062 160.188 37.9688 160.188H58.0312C59.0938 160.188 59.9062 160.469 60.4688 161.031C61.0938 161.594 61.4062 162.25 61.4062 163C61.4062 163.75 61.0938 164.406 60.4688 164.969C59.9062 165.531 59.0938 165.812 58.0312 165.812H37.9688ZM13.9688 153.812C12.9062 153.812 12.0625 153.531 11.4375 152.969C10.875 152.406 10.5938 151.75 10.5938 151C10.5938 150.25 10.875 149.594 11.4375 149.031C12.0625 148.469 12.9062 148.188 13.9688 148.188H82.0312C83.0938 148.188 83.9062 148.469 84.4688 149.031C85.0938 149.594 85.4062 150.25 85.4062 151C85.4062 151.75 85.0938 152.406 84.4688 152.969C83.9062 153.531 83.0938 153.812 82.0312 153.812H13.9688ZM37.9688 141.812C36.9062 141.812 36.0625 141.531 35.4375 140.969C34.875 140.406 34.5938 139.75 34.5938 139C34.5938 138.25 34.875 137.594 35.4375 137.031C36.0625 136.469 36.9062 136.188 37.9688 136.188H58.0312C59.0938 136.188 59.9062 136.469 60.4688 137.031C61.0938 137.594 61.4062 138.25 61.4062 139C61.4062 139.75 61.0938 140.406 60.4688 140.969C59.9062 141.531 59.0938 141.812 58.0312 141.812H37.9688ZM37.9688 129.812C36.9062 129.812 36.0625 129.531 35.4375 128.969C34.875 128.406 34.5938 127.75 34.5938 127C34.5938 126.25 34.875 125.594 35.4375 125.031C36.0625 124.469 36.9062 124.188 37.9688 124.188H58.0312C59.0938 124.188 59.9062 124.469 60.4688 125.031C61.0938 125.594 61.4062 126.25 61.4062 127C61.4062 127.75 61.0938 128.406 60.4688 128.969C59.9062 129.531 59.0938 129.812 58.0312 129.812H37.9688ZM109.969 165.812C108.906 165.812 108.062 165.531 107.438 164.969C106.875 164.406 106.594 163.75 106.594 163C106.594 162.25 106.875 161.594 107.438 161.031C108.062 160.469 108.906 160.188 109.969 160.188H178.031C179.094 160.188 179.906 160.469 180.469 161.031C181.094 161.594 181.406 162.25 181.406 163C181.406 163.75 181.094 164.406 180.469 164.969C179.906 165.531 179.094 165.812 178.031 165.812H109.969ZM109.969 141.812C108.906 141.812 108.062 141.531 107.438 140.969C106.875 140.406 106.594 139.75 106.594 139C106.594 138.25 106.875 137.594 107.438 137.031C108.062 136.469 108.906 136.188 109.969 136.188H178.031C179.094 136.188 179.906 136.469 180.469 137.031C181.094 137.594 181.406 138.25 181.406 139C181.406 139.75 181.094 140.406 180.469 140.969C179.906 141.531 179.094 141.812 178.031 141.812H109.969Z" fill="#FF0000"/>
</g>
<defs>
<clipPath id="clip0_177_556">
<rect width="200" height="200" fill="white"/>
</clipPath>
</defs>
</svg>
